<svg xmlns="http://www.w3.org/2000/svg" fill="none" viewBox="0 0 24 24"><g fill="currentColor"><path d="M7.863 3c-.796 0-1.387 0-1.898.136a4 4 0 0 0-2.829 2.829C3 6.476 3 7.067 3 7.863V8a1 1 0 0 0 1 1h6a1 1 0 0 0 1-1V4a1 1 0 0 0-1-1zM20.149 15.029a1 1 0 0 0-.207-.028l-.07-.001H14a1 1 0 0 0-1 1v4a1 1 0 0 0 1 1h2.249c.693 0 1.206 0 1.655-.104a4 4 0 0 0 2.992-2.992c.105-.449.104-.962.104-1.655v-.122l-.001-.07a1.1 1.1 0 0 0-.85-1.03M4 11a1 1 0 0 0-1 1v3.241c0 .805 0 1.47.044 2.01.046.563.145 1.08.392 1.565a4 4 0 0 0 1.748 1.748c.485.247 1.002.346 1.564.392C7.29 21 7.954 21 8.758 21H10a1 1 0 0 0 1-1v-8a1 1 0 0 0-1-1zM18.816 3.436c-.485-.247-1.002-.346-1.564-.392C16.71 3 16.046 3 15.242 3H14a1 1 0 0 0-1 1v8a1 1 0 0 0 1 1h6a1 1 0 0 0 1-1V8.759c0-.805 0-1.47-.044-2.01-.046-.563-.145-1.08-.392-1.565a4 4 0 0 0-1.748-1.748"/></g></svg>
