<svg xmlns="http://www.w3.org/2000/svg" fill="none" viewBox="0 0 24 24"><path fill="currentColor" fill-rule="evenodd" d="M10.7 2.39a4 4 0 0 1 2.6 0l5.675 1.95A3 3 0 0 1 21 7.177v4.735c0 2.807-1.149 4.83-2.812 6.404-1.573 1.489-3.633 2.6-5.556 3.637l-.157.085a1 1 0 0 1-.95 0l-.157-.085c-1.923-1.037-3.983-2.148-5.555-3.637C4.149 16.741 3 14.72 3 11.912V7.177A3 3 0 0 1 5.025 4.34zm4.507 8.067a1 1 0 0 0-1.414-1.414L11 11.836l-.793-.793a1 1 0 0 0-1.414 1.414l1.5 1.5a1 1 0 0 0 1.414 0z" clip-rule="evenodd"/></svg>
