<svg xmlns="http://www.w3.org/2000/svg" fill="none" viewBox="0 0 24 24"><g fill="currentColor" fill-rule="evenodd" clip-rule="evenodd"><path d="M7 3a4 4 0 0 0-4 4v10a4 4 0 0 0 4 4h5v-4a6 6 0 0 1 9-5.197V7a4 4 0 0 0-4-4zm3.14 3.952a1 1 0 0 1 .2 1.4l-1.872 2.496a1 1 0 0 1-1.355.232l-1.125-.75a1 1 0 1 1 1.11-1.664l.338.225L8.74 7.152a1 1 0 0 1 1.4-.2M13.058 9a1 1 0 0 1 1-1h2a1 1 0 0 1 0 2h-2a1 1 0 0 1-1-1m-2.918 3.953a1 1 0 0 1 .2 1.4L8.468 16.85a1 1 0 0 1-1.355.232l-1.125-.75a1 1 0 1 1 1.11-1.664l.338.225 1.304-1.739a1 1 0 0 1 1.4-.2"/><path d="M18 13a4 4 0 0 1 4 4v3a1 1 0 0 1-1 1h-1.27a1.998 1.998 0 0 1-3.46 0H15a1 1 0 0 1-1-1v-3a4 4 0 0 1 4-4m0 2a2 2 0 0 0-2 2v2h4v-2a2 2 0 0 0-2-2"/></g></svg>
