<svg xmlns="http://www.w3.org/2000/svg" fill="none" viewBox="0 0 24 24"><g fill="currentColor"><path d="M18.577 2.568a1.25 1.25 0 0 0-2.07-.488l-2.335 2.335A4 4 0 0 0 13 7.243v2.343l-1.707 1.707a1 1 0 0 0 1.414 1.415L14.414 11h2.343a4 4 0 0 0 2.829-1.172l2.335-2.335a1.25 1.25 0 0 0-.488-2.07L19.29 4.71z"/><path d="M4 12a8 8 0 0 1 8-8 1 1 0 1 0 0-2C6.477 2 2 6.477 2 12s4.477 10 10 10 10-4.477 10-10a1 1 0 1 0-2 0 8 8 0 1 1-16 0"/><path d="M10.8 8.183a1 1 0 1 0-.6-1.908A6.002 6.002 0 0 0 12 18a6 6 0 0 0 5.725-4.2 1 1 0 1 0-1.908-.6A4.002 4.002 0 0 1 8 12a4 4 0 0 1 2.8-3.817"/></g></svg>
