<svg xmlns="http://www.w3.org/2000/svg" fill="none" viewBox="0 0 24 24"><g fill="currentColor"><path d="M15.034 4.528A2 2 0 0 0 13.84 7.09l1.881 5.168a2 2 0 0 0 2.563 1.196l3.76-1.368a2 2 0 0 0 1.195-2.564l-1.881-5.168a2 2 0 0 0-2.564-1.195zM6.962 10.126a1.5 1.5 0 0 1 .897-1.922l4.229-1.54 2.565 7.048-2.654.966V19h2a1 1 0 0 1 0 2H8a1 1 0 1 1 0-2h2v-3.66a1.5 1.5 0 0 1-1.498-.985z"/><path d="M1.367 13.759a2 2 0 0 1 1.196-2.564l2.819-1.026 1.88 5.169-2.818 1.026a2 2 0 0 1-2.564-1.196z"/></g></svg>
